<svg width="26" height="26" viewBox="0 0 26 26" fill="none" xmlns="http://www.w3.org/2000/svg">
<path d="M5.39829 7.79682C6.70739 7.79682 7.76862 6.73558 7.76862 5.42649C7.76862 4.11739 6.70739 3.05615 5.39829 3.05615C4.08919 3.05615 3.02795 4.11739 3.02795 5.42649C3.02795 6.73558 4.08919 7.79682 5.39829 7.79682Z" fill="currentColor"/>
<path d="M10.0067 9.59282V22.7434H14.0898V16.2402C14.0898 14.5242 14.4127 12.8623 16.5403 12.8623C18.6387 12.8623 18.6647 14.8242 18.6647 16.3485V22.7445H22.75V15.5327C22.75 11.9902 21.9873 9.26782 17.8468 9.26782C15.8589 9.26782 14.5264 10.3587 13.9815 11.3912H13.9262V9.59282H10.0067ZM3.35291 9.59282H7.44249V22.7434H3.35291V9.59282Z" fill="currentColor"/>
</svg>
