<svg width="27" height="23" viewBox="0 0 27 23" fill="none" xmlns="http://www.w3.org/2000/svg">
<path d="M24.4084 0.983028C24.4084 0.983028 26.8136 0.04517 26.6131 2.32283C26.5463 3.2607 25.9451 6.5432 25.4774 10.0937L23.8739 20.6111C23.8739 20.6111 23.7403 22.1519 22.5377 22.4199C21.3351 22.6878 19.5312 21.482 19.1971 21.214C18.9299 21.0131 14.1864 17.9985 12.516 16.5247C12.0484 16.1228 11.5139 15.3189 12.5828 14.381L19.598 7.68206C20.3997 6.87817 21.2015 5.00245 17.8609 7.28011L8.5074 13.6442C8.5074 13.6442 7.43843 14.314 5.43414 13.7112L1.0914 12.3714C1.0914 12.3714 -0.512061 11.3665 2.22719 10.3616C8.9083 7.21307 17.126 3.99755 24.4084 0.983028Z" fill="currentColor"/>
</svg>
