<svg width="18" height="18" viewBox="0 0 18 18" fill="none" xmlns="http://www.w3.org/2000/svg">
<g clip-path="url(#clip0_233_52)">
<path fill-rule="evenodd" clip-rule="evenodd" d="M5.3999 8.9999C5.3999 7.01168 7.01168 5.3999 8.9999 5.3999C10.9881 5.3999 12.5999 7.01168 12.5999 8.9999C12.5999 10.9881 10.9881 12.5999 8.9999 12.5999C7.01168 12.5999 5.3999 10.9881 5.3999 8.9999Z" fill="white"/>
<path fill-rule="evenodd" clip-rule="evenodd" d="M8.99998 0C9.49705 0 9.89998 0.402948 9.89998 0.9V2.7C9.89998 3.19705 9.49705 3.6 8.99998 3.6C8.50291 3.6 8.09998 3.19705 8.09998 2.7V0.9C8.09998 0.402948 8.50291 0 8.99998 0Z" fill="white"/>
<path fill-rule="evenodd" clip-rule="evenodd" d="M15.9363 2.06365C16.2878 2.41513 16.2878 2.98497 15.9363 3.33645L14.1363 5.13645C13.7849 5.48792 13.215 5.48792 12.8636 5.13645C12.5121 4.78497 12.5121 4.21513 12.8636 3.86365L14.6636 2.06365C15.015 1.71218 15.5849 1.71218 15.9363 2.06365Z" fill="white"/>
<path fill-rule="evenodd" clip-rule="evenodd" d="M14.3999 8.99985C14.3999 8.50278 14.8028 8.09985 15.2999 8.09985H17.0999C17.597 8.09985 17.9999 8.50278 17.9999 8.99985C17.9999 9.49692 17.597 9.89985 17.0999 9.89985H15.2999C14.8028 9.89985 14.3999 9.49692 14.3999 8.99985Z" fill="white"/>
<path fill-rule="evenodd" clip-rule="evenodd" d="M12.8636 12.8634C13.215 12.512 13.7849 12.512 14.1363 12.8634L15.9363 14.6634C16.2878 15.0149 16.2878 15.5848 15.9363 15.9362C15.5849 16.2877 15.015 16.2877 14.6636 15.9362L12.8636 14.1362C12.5121 13.7848 12.5121 13.2149 12.8636 12.8634Z" fill="white"/>
<path fill-rule="evenodd" clip-rule="evenodd" d="M8.99998 14.3999C9.49705 14.3999 9.89998 14.8028 9.89998 15.2999V17.0999C9.89998 17.597 9.49705 17.9999 8.99998 17.9999C8.50291 17.9999 8.09998 17.597 8.09998 17.0999V15.2999C8.09998 14.8028 8.50291 14.3999 8.99998 14.3999Z" fill="white"/>
<path fill-rule="evenodd" clip-rule="evenodd" d="M5.13633 12.8634C5.48779 13.2149 5.48779 13.7848 5.13633 14.1362L3.33633 15.9362C2.98485 16.2877 2.415 16.2877 2.06353 15.9362C1.71206 15.5848 1.71206 15.0149 2.06353 14.6634L3.86353 12.8634C4.215 12.512 4.78485 12.512 5.13633 12.8634Z" fill="white"/>
<path fill-rule="evenodd" clip-rule="evenodd" d="M0 8.99985C0 8.50278 0.402948 8.09985 0.9 8.09985H2.7C3.19705 8.09985 3.6 8.50278 3.6 8.99985C3.6 9.49692 3.19705 9.89985 2.7 9.89985H0.9C0.402948 9.89985 0 9.49692 0 8.99985Z" fill="white"/>
<path fill-rule="evenodd" clip-rule="evenodd" d="M2.06353 2.06365C2.415 1.71218 2.98485 1.71218 3.33633 2.06365L5.13633 3.86365C5.48779 4.21513 5.48779 4.78497 5.13633 5.13645C4.78485 5.48792 4.215 5.48792 3.86353 5.13645L2.06353 3.33645C1.71206 2.98497 1.71206 2.41513 2.06353 2.06365Z" fill="white"/>
</g>
<defs>
<clipPath id="clip0_233_52">
<rect width="18" height="18" fill="white"/>
</clipPath>
</defs>
</svg>
